<?xml version="1.0" standalone="no"?>
<!DOCTYPE svg PUBLIC "-//W3C//DTD SVG 20010904//EN"
 "http://www.w3.org/TR/2001/REC-SVG-20010904/DTD/svg10.dtd">
<svg version="1.0" xmlns="http://www.w3.org/2000/svg"
 width="700.000000pt" height="700.000000pt" viewBox="0 0 700.000000 700.000000"
 preserveAspectRatio="xMidYMid meet">
<metadata>
Created by potrace 1.14, written by Peter Selinger 2001-2017
</metadata>
<g transform="translate(0.000000,700.000000) scale(0.100000,-0.100000)"
fill="#000000" stroke="none">
<path d="M3259 6986 c-2 -2 -38 -7 -79 -10 -41 -3 -86 -8 -100 -10 -14 -3 -47
-7 -75 -11 -369 -43 -842 -202 -1197 -401 -302 -169 -522 -336 -773 -588 -174
-175 -174 -175 -287 -318 -89 -114 -226 -318 -290 -433 -25 -44 -145 -288
-168 -340 -70 -158 -170 -466 -194 -595 -2 -14 -9 -46 -15 -72 -22 -95 -46
-254 -58 -383 -15 -171 -7 -724 12 -755 2 -3 6 -30 9 -60 6 -52 27 -176 40
-230 4 -14 9 -38 11 -55 3 -16 8 -38 11 -47 3 -9 7 -25 9 -35 2 -10 15 -58 30
-108 96 -332 235 -638 423 -930 54 -84 134 -197 152 -215 3 -3 27 -34 55 -70
76 -99 97 -123 270 -295 384 -385 811 -650 1340 -833 166 -58 463 -129 605
-146 25 -3 60 -8 78 -10 211 -28 695 -29 852 -2 14 2 48 7 75 10 28 3 61 8 75
11 14 3 52 10 85 16 154 27 500 125 608 173 18 7 73 31 122 52 205 87 449 224
635 357 246 176 546 461 718 682 95 122 239 333 283 415 13 25 27 47 30 50 3
3 38 70 76 150 123 252 201 463 261 710 32 131 58 264 67 340 3 25 7 56 10 69
27 140 27 719 1 857 -2 12 -7 45 -11 75 -42 341 -182 776 -357 1109 -85 160
-219 378 -285 460 -7 8 -35 44 -63 80 -97 125 -144 176 -299 330 -394 392
-841 666 -1366 839 -107 35 -318 91 -400 106 -130 23 -209 35 -265 40 -36 4
-76 9 -90 12 -29 6 -565 14 -571 9z m324 -1366 c26 -16 49 -30 52 -30 2 0 81
-46 177 -103 209 -125 438 -260 737 -436 123 -73 240 -142 260 -154 20 -12 46
-27 56 -33 19 -11 20 -26 23 -417 l2 -406 -95 57 c-53 31 -110 65 -128 76 -18
10 -120 71 -227 135 -107 64 -199 118 -205 120 -9 4 -168 98 -205 121 -8 5
-55 33 -105 61 -49 29 -97 58 -105 64 -8 7 -37 25 -65 40 -27 14 -90 51 -139
80 l-90 53 -154 -104 c-89 -60 -161 -102 -170 -99 -8 3 -111 64 -231 137 -119
72 -269 163 -333 201 -65 39 -118 74 -118 78 0 4 12 14 28 21 15 8 121 70 236
137 115 68 223 131 240 141 17 9 87 51 156 92 69 41 132 77 140 81 8 4 56 32
105 62 50 30 95 54 101 55 5 0 31 -13 57 -30z m-1358 -810 c6 -2 19 -8 30 -15
21 -13 335 -194 830 -480 160 -92 412 -237 560 -323 149 -85 322 -185 385
-222 241 -141 507 -294 550 -318 25 -14 61 -35 80 -47 19 -12 42 -25 50 -28 8
-4 38 -21 65 -37 28 -17 65 -38 83 -47 l32 -17 0 -393 c0 -216 -2 -393 -4
-393 -2 0 -37 19 -78 43 -40 24 -80 46 -88 50 -8 4 -24 13 -35 19 -27 18 -81
50 -135 80 -25 14 -101 58 -170 98 -69 39 -145 83 -170 97 -25 14 -70 40 -100
58 -54 32 -344 200 -900 520 -151 87 -383 222 -515 298 -132 77 -256 149 -275
159 -19 11 -85 49 -146 84 l-111 64 0 395 -1 395 26 -19 c15 -10 32 -20 37
-21z m212 -1681 c131 -78 258 -153 283 -167 25 -14 72 -42 105 -62 33 -21 128
-77 210 -125 83 -48 161 -95 175 -104 14 -8 45 -26 70 -39 25 -14 52 -31 61
-38 8 -8 19 -14 22 -14 4 0 30 -15 59 -33 112 -69 88 -73 259 41 83 56 155
102 161 102 6 0 130 -73 277 -161 146 -89 301 -183 343 -208 42 -25 74 -49 70
-53 -6 -5 -445 -263 -562 -330 -19 -11 -126 -74 -238 -140 -195 -114 -204
-118 -230 -105 -15 7 -72 41 -127 74 -110 66 -488 290 -520 307 -11 6 -99 58
-195 116 -96 57 -191 114 -211 125 -20 11 -92 53 -162 94 l-125 74 -1 404 c0
391 1 403 19 393 10 -5 126 -73 257 -151z"/>
</g>
</svg>
