<?xml version="1.0" encoding="utf-8"?>
<!-- Generator: Adobe Illustrator 24.1.1, SVG Export Plug-In . SVG Version: 6.00 Build 0)  -->
<svg version="1.1" id="Warstwa_1" xmlns="http://www.w3.org/2000/svg" xmlns:xlink="http://www.w3.org/1999/xlink" x="0px" y="0px"
	 viewBox="0 0 1285.11 1143.11" style="enable-background:new 0 0 1285.11 1143.11;" xml:space="preserve">
<g>
	<path d="M642.6,3.2c-220.36,0-399,178.64-399,399s178.64,399,399,399s399-178.64,399-399S862.96,3.2,642.6,3.2z M642.6,629.45
		l-156-92.18v-92.22l156,92.2l35.98-24.22l80.02,48.44L642.6,629.45z M798.61,537.25L486.77,357.21l-0.17-90.08l312.01,180.14
		V537.25z M798.61,359.35l-156-92.2l-35.98,24.22l-80.02-48.44l115.99-67.98l156,92.18V359.35z"/>
</g>
<g>
	<path d="M94.53,1008.1c-0.63,1.18-1.53,1.77-2.71,1.77c-0.91,0-2.07-0.64-3.5-1.93c-1.43-1.29-3.36-2.71-5.79-4.28
		c-2.44-1.57-5.48-3.01-9.13-4.33c-3.65-1.32-8.16-1.98-13.52-1.98c-5.36,0-10.08,0.77-14.15,2.3c-4.07,1.53-7.48,3.62-10.23,6.26
		c-2.75,2.65-4.84,5.71-6.26,9.19c-1.43,3.48-2.14,7.14-2.14,10.96c0,5.01,1.06,9.15,3.18,12.42c2.12,3.27,4.92,6.06,8.4,8.35
		c3.48,2.3,7.43,4.23,11.85,5.79c4.42,1.57,8.96,3.12,13.62,4.65c4.66,1.53,9.2,3.22,13.62,5.06c4.42,1.84,8.37,4.16,11.85,6.94
		c3.48,2.79,6.28,6.21,8.4,10.28c2.12,4.07,3.18,9.14,3.18,15.19c0,6.2-1.06,12.02-3.18,17.49c-2.12,5.46-5.2,10.21-9.24,14.25
		c-4.04,4.04-8.98,7.22-14.82,9.55s-12.53,3.5-20.04,3.5c-9.75,0-18.13-1.72-25.16-5.17c-7.03-3.45-13.19-8.16-18.48-14.15
		l2.92-4.59c0.83-1.04,1.81-1.57,2.92-1.57c0.63,0,1.43,0.42,2.4,1.25c0.97,0.84,2.16,1.86,3.55,3.08c1.39,1.22,3.06,2.54,5.01,3.97
		c1.95,1.43,4.21,2.75,6.79,3.97c2.57,1.22,5.53,2.24,8.87,3.08c3.34,0.83,7.13,1.25,11.38,1.25c5.85,0,11.07-0.89,15.66-2.66
		c4.59-1.77,8.47-4.19,11.64-7.25c3.17-3.06,5.58-6.7,7.25-10.91c1.67-4.21,2.51-8.72,2.51-13.52c0-5.22-1.06-9.52-3.18-12.89
		c-2.12-3.38-4.92-6.19-8.4-8.46c-3.48-2.26-7.43-4.16-11.85-5.69c-4.42-1.53-8.96-3.03-13.62-4.49c-4.66-1.46-9.21-3.1-13.62-4.91
		c-4.42-1.81-8.37-4.12-11.85-6.94c-3.48-2.82-6.28-6.33-8.4-10.54c-2.12-4.21-3.18-9.48-3.18-15.82c0-4.94,0.94-9.71,2.82-14.3
		s4.63-8.65,8.25-12.16c3.62-3.51,8.09-6.33,13.42-8.46c5.32-2.12,11.4-3.18,18.22-3.18c7.66,0,14.53,1.22,20.62,3.65
		c6.09,2.44,11.64,6.16,16.65,11.17L94.53,1008.1z"/>
	<path d="M180.42,1137.87h-10.75V990.14h10.75V1137.87z"/>
	<path d="M348.34,1128.99l-0.21,8.87H259.6V990.14h88.53v8.87h-77.78v59.72h64.73v8.67h-64.73v61.6H348.34z"/>
	<path d="M559.45,990.14v147.73h-9.29v-125.91c0-1.81,0.1-3.72,0.31-5.74l-58.15,103.25c-0.98,1.81-2.37,2.71-4.18,2.71h-1.67
		c-1.81,0-3.2-0.9-4.18-2.71l-59.72-103.46c0.21,2.09,0.31,4.07,0.31,5.95v125.91h-9.4V990.14h7.41c0.97,0,1.74,0.1,2.3,0.31
		c0.56,0.21,1.11,0.77,1.67,1.67l59.61,102.73c1.04,1.95,1.95,4.04,2.71,6.26c0.42-1.11,0.87-2.21,1.36-3.29
		c0.49-1.08,1.01-2.1,1.57-3.08l57.94-102.62c0.56-0.9,1.13-1.46,1.72-1.67c0.59-0.21,1.37-0.31,2.35-0.31H559.45z"/>
	<path d="M649.44,1137.87h-10.75V990.14h10.75V1137.87z"/>
	<path d="M817.36,1128.99l-0.21,8.87h-88.53V990.14h88.53v8.87h-77.78v59.72h64.73v8.67h-64.73v61.6H817.36z"/>
	<path d="M996.53,990.14v147.73h-5.01c-0.91,0-1.65-0.16-2.24-0.47c-0.59-0.31-1.17-0.85-1.72-1.62l-95.94-128.2
		c0.21,2.09,0.31,4.07,0.31,5.95v124.34h-9.4V990.14h5.32c0.97,0,1.72,0.12,2.25,0.37c0.52,0.25,1.1,0.78,1.72,1.62l95.73,127.89
		c-0.21-2.09-0.31-4.07-0.31-5.95V990.14H996.53z"/>
	<path d="M1086.52,1137.87h-10.75V990.14h10.75V1137.87z"/>
	<path d="M1176.45,1058.31h8.77c1.32,0,2.47-0.05,3.44-0.16c0.97-0.1,1.86-0.3,2.66-0.57c0.8-0.28,1.53-0.68,2.19-1.2
		c0.66-0.52,1.37-1.16,2.14-1.93l59.61-61.28c1.04-1.18,2.07-1.98,3.08-2.4c1.01-0.42,2.21-0.63,3.6-0.63h8.56l-64.52,66.29
		c-1.32,1.39-2.49,2.47-3.5,3.24c-1.01,0.77-2.14,1.39-3.39,1.88c1.46,0.42,2.78,1.06,3.97,1.93c1.18,0.87,2.37,2,3.55,3.39
		l67.96,70.99h-8.67c-1.81,0-3.12-0.23-3.92-0.68c-0.8-0.45-1.58-1.17-2.35-2.14l-62.43-63.89c-0.77-0.77-1.48-1.43-2.14-1.98
		c-0.66-0.56-1.39-1.03-2.19-1.41c-0.8-0.38-1.74-0.66-2.82-0.83c-1.08-0.17-2.45-0.26-4.12-0.26h-9.5v71.2h-10.75V990.14h10.75
		V1058.31z"/>
</g>
</svg>
